<svg width="600" height="500" xmlns="http://www.w3.org/2000/svg">
  <!-- Background -->
  <rect width="100%" height="100%" fill="#ffffff" stroke="#e5e7eb" stroke-width="2" rx="8"/>
  
  <!-- Header -->
  <rect x="0" y="0" width="600" height="60" fill="#006B5B" rx="8"/>
  <rect x="0" y="52" width="600" height="8" fill="#006B5B"/>
  <text x="30" y="40" fill="white" font-size="18" font-family="Arial, sans-serif" font-weight="bold">New Message</text>
  <text x="550" y="40" text-anchor="middle" fill="white" font-size="20" font-family="Arial, sans-serif">✕</text>
  
  <!-- Form fields -->
  <text x="30" y="90" fill="#374151" font-size="14" font-family="Arial, sans-serif" font-weight="bold">To:</text>
  <rect x="30" y="100" width="540" height="35" fill="white" stroke="#d1d5db" stroke-width="1" rx="6"/>
  <text x="45" y="122" fill="#374151" font-size="14" font-family="Arial, sans-serif">Recovery Team (team@acclaimcredit.com)</text>
  
  <text x="30" y="165" fill="#374151" font-size="14" font-family="Arial, sans-serif" font-weight="bold">Subject:</text>
  <rect x="30" y="175" width="540" height="35" fill="white" stroke="#d1d5db" stroke-width="1" rx="6"/>
  <text x="45" y="197" fill="#9ca3af" font-size="14" font-family="Arial, sans-serif">Enter message subject...</text>
  
  <text x="30" y="240" fill="#374151" font-size="14" font-family="Arial, sans-serif" font-weight="bold">Link to Case (optional):</text>
  <rect x="30" y="250" width="540" height="35" fill="white" stroke="#d1d5db" stroke-width="1" rx="6"/>
  <text x="45" y="272" fill="#374151" font-size="14" font-family="Arial, sans-serif">CLS00003-028 - John Smith</text>
  <text x="540" y="272" fill="#9ca3af" font-size="14" font-family="Arial, sans-serif">⌄</text>
  
  <text x="30" y="315" fill="#374151" font-size="14" font-family="Arial, sans-serif" font-weight="bold">Message:</text>
  <rect x="30" y="325" width="540" height="100" fill="white" stroke="#d1d5db" stroke-width="1" rx="6"/>
  <text x="45" y="345" fill="#9ca3af" font-size="14" font-family="Arial, sans-serif">Type your message here...</text>
  
  <!-- File attachment -->
  <rect x="30" y="440" width="200" height="30" fill="#f3f4f6" stroke="#d1d5db" stroke-width="1" rx="6"/>
  <text x="45" y="460" fill="#6b7280" font-size="14" font-family="Arial, sans-serif">📎 Attach File</text>
  
  <!-- Buttons -->
  <rect x="450" y="440" width="60" height="30" fill="#e5e7eb" stroke="#d1d5db" stroke-width="1" rx="6"/>
  <text x="480" y="460" text-anchor="middle" fill="#6b7280" font-size="14" font-family="Arial, sans-serif">Cancel</text>
  
  <rect x="520" y="440" width="50" height="30" fill="#006B5B" rx="6"/>
  <text x="545" y="460" text-anchor="middle" fill="white" font-size="14" font-family="Arial, sans-serif">Send</text>
</svg>